Exo 2-Black.ufo
<glyph name="quotesingle" format="2">
  <advance width="214"/>
  <unicode hex="0027"/>
  <outline>
    <contour>
      <point x="179" y="690" type="line"/>
      <point x="35" y="690" type="line"/>
      <point x="47" y="462" type="line"/>
      <point x="167" y="462" type="line"/>
    </contour>
  </outline>
</glyph>
<glyph name="parenleft" format="2">
  <advance width="372"/>
  <unicode hex="0028"/>
  <outline>
    <contour>
      <point x="366" y="702" type="curve"/>
      <point x="342" y="790" type="line"/>
      <point x="123" y="734"/>
      <point x="25" y="584"/>
      <point x="25" y="312" type="curve" smooth="yes"/>
      <point x="25" y="42"/>
      <point x="123" y="-108"/>
      <point x="342" y="-165" type="curve"/>
      <point x="366" y="-77" type="line"/>
      <point x="262" y="-31"/>
      <point x="228" y="113"/>
      <point x="228" y="313" type="curve" smooth="yes"/>
      <point x="228" y="517"/>
      <point x="262" y="660"/>
    </contour>
  </outline>
</glyph>
<glyph name="hyphen" format="2">
  <advance width="379"/>
  <unicode hex="002D"/>
  <outline>
    <contour>
      <point x="335" y="318" type="line"/>
      <point x="44" y="318" type="line"/>
      <point x="44" y="196" type="line"/>
      <point x="335" y="196" type="line"/>
    </contour>
  </outline>
</glyph>
<glyph name="slash" format="2">
  <advance width="588"/>
  <unicode hex="002F"/>
  <outline>
    <contour>
      <point x="573" y="690" type="line"/>
      <point x="408" y="690" type="line"/>
      <point x="15" y="-79" type="line"/>
      <point x="180" y="-79" type="line"/>
    </contour>
  </outline>
</glyph>
<glyph name="equal" format="2">
  <advance width="571"/>
  <unicode hex="003D"/>
  <outline>
    <contour>
      <point x="526" y="483" type="line"/>
      <point x="45" y="483" type="line"/>
      <point x="45" y="337" type="line"/>
      <point x="526" y="337" type="line"/>
    </contour>
    <contour>
      <point x="526" y="267" type="line"/>
      <point x="45" y="267" type="line"/>
      <point x="45" y="121" type="line"/>
      <point x="526" y="121" type="line"/>
    </contour>
  </outline>
</glyph>
<glyph name="backslash" format="2">
  <advance width="588"/>
  <unicode hex="005C"/>
  <outline>
    <contour>
      <point x="180" y="690" type="line"/>
      <point x="15" y="690" type="line"/>
      <point x="408" y="-79" type="line"/>
      <point x="573" y="-79" type="line"/>
    </contour>
  </outline>
</glyph>
<glyph name="asciicircum" format="2">
  <advance width="497"/>
  <unicode hex="005E"/>
  <outline>
    <contour>
      <point x="326" y="653" type="line"/>
      <point x="174" y="653" type="line"/>
      <point x="30" y="414" type="line"/>
      <point x="110" y="372" type="line"/>
      <point x="246" y="529" type="line"/>
      <point x="254" y="529" type="line"/>
      <point x="386" y="372" type="line"/>
      <point x="467" y="414" type="line"/>
    </contour>
  </outline>
</glyph>
<glyph name="underscore" format="2">
  <advance width="451"/>
  <unicode hex="005F"/>
  <outline>
    <contour>
      <point x="451" y="0" type="line"/>
      <point x="0" y="0" type="line"/>
      <point x="0" y="-122" type="line"/>
      <point x="451" y="-122" type="line"/>
    </contour>
  </outline>
</glyph>
<glyph name="l" format="2">
  <advance width="358"/>
  <unicode hex="006C"/>
  <anchor x="201" y="-12" name="bottom"/>
  <anchor x="149" y="733" name="top"/>
  <anchor x="370" y="634" name="topright"/>
  <outline>
    <contour>
      <point x="253" y="182" type="curve" smooth="yes"/>
      <point x="253" y="700" type="line"/>
      <point x="44" y="700" type="line"/>
      <point x="44" y="126" type="line" smooth="yes"/>
      <point x="44" y="38"/>
      <point x="108" y="-14"/>
      <point x="213" y="-14" type="curve" smooth="yes"/>
      <point x="252" y="-14"/>
      <point x="330" y="-6"/>
      <point x="360" y="12" type="curve"/>
      <point x="337" y="146" type="line"/>
      <point x="303" y="146" type="line" smooth="yes"/>
      <point x="269" y="146"/>
      <point x="253" y="156"/>
    </contour>
  </outline>
</glyph>
<glyph name="bar" format="2">
  <advance width="276"/>
  <unicode hex="007C"/>
  <outline>
    <contour>
      <point x="211" y="781" type="line"/>
      <point x="65" y="781" type="line"/>
      <point x="65" y="-169" type="line"/>
      <point x="211" y="-169" type="line"/>
    </contour>
  </outline>
</glyph>
<glyph name="brokenbar" format="2">
  <advance width="278"/>
  <unicode hex="00A6"/>
  <outline>
    <contour>
      <point x="212" y="781" type="line"/>
      <point x="66" y="781" type="line"/>
      <point x="66" y="381" type="line"/>
      <point x="212" y="381" type="line"/>
    </contour>
    <contour>
      <point x="212" y="231" type="line"/>
      <point x="66" y="231" type="line"/>
      <point x="66" y="-169" type="line"/>
      <point x="212" y="-169" type="line"/>
    </contour>
  </outline>
</glyph>
<glyph name="logicalnot" format="2">
  <advance width="571"/>
  <unicode hex="00AC"/>
  <outline>
    <contour>
      <point x="523" y="381" type="line"/>
      <point x="41" y="381" type="line"/>
      <point x="41" y="237" type="line"/>
      <point x="523" y="237" type="line"/>
    </contour>
    <contour>
      <point x="523" y="370" type="line"/>
      <point x="368" y="359" type="line"/>
      <point x="368" y="137" type="line"/>
      <point x="523" y="138" type="line"/>
    </contour>
  </outline>
</glyph>
<glyph name="guillemotright" format="2">
  <advance width="552"/>
  <unicode hex="00BB"/>
  <outline>
    <contour>
      <point x="138" y="470" type="line"/>
      <point x="28" y="401" type="line"/>
      <point x="114" y="251" type="line"/>
      <point x="28" y="95" type="line"/>
      <point x="138" y="26" type="line"/>
      <point x="296" y="229" type="line"/>
      <point x="296" y="273" type="line"/>
    </contour>
    <contour>
      <point x="373" y="470" type="line"/>
      <point x="263" y="401" type="line"/>
      <point x="349" y="251" type="line"/>
      <point x="263" y="95" type="line"/>
      <point x="373" y="26" type="line"/>
      <point x="531" y="229" type="line"/>
      <point x="531" y="273" type="line"/>
    </contour>
  </outline>
</glyph>
<glyph name="Eth" format="2">
  <advance width="701"/>
  <unicode hex="00D0"/>
  <outline>
    <contour>
      <point x="368" y="409" type="line"/>
      <point x="7" y="409" type="line"/>
      <point x="7" y="305" type="line"/>
      <point x="368" y="305" type="line"/>
    </contour>
    <component base="D"/>
  </outline>
</glyph>
<glyph name="dcroat" format="2">
  <advance width="617"/>
  <unicode hex="0111"/>
  <outline>
    <contour>
      <point x="631" y="631" type="line"/>
      <point x="260" y="631" type="line"/>
      <point x="260" y="547" type="line"/>
      <point x="631" y="547" type="line"/>
    </contour>
    <component base="d"/>
  </outline>
</glyph>
<glyph name="Hbar" format="2">
  <advance width="714"/>
  <unicode hex="0126"/>
  <outline>
    <contour>
      <point x="712" y="601" type="line"/>
      <point x="4" y="601" type="line"/>
      <point x="4" y="507" type="line"/>
      <point x="712" y="507" type="line"/>
    </contour>
    <component base="H"/>
  </outline>
</glyph>
<glyph name="hbar" format="2">
  <advance width="624"/>
  <unicode hex="0127"/>
  <outline>
    <contour>
      <point x="362" y="631" type="line"/>
      <point x="-9" y="631" type="line"/>
      <point x="-9" y="547" type="line"/>
      <point x="362" y="547" type="line"/>
    </contour>
    <component base="h" xOffset="3"/>
  </outline>
</glyph>
<glyph name="dotlessi" format="2">
  <advance width="305"/>
  <unicode hex="0131"/>
  <anchor x="151" y="-12" name="bottom"/>
  <anchor x="238" y="0" name="ogonek"/>
  <anchor x="150" y="557" name="top"/>
  <outline>
    <contour>
      <point x="258" y="500" type="line"/>
      <point x="47" y="500" type="line"/>
      <point x="47" y="0" type="line"/>
      <point x="258" y="0" type="line"/>
    </contour>
  </outline>
</glyph>
<glyph name="lslash" format="2">
  <advance width="390"/>
  <unicode hex="0142"/>
  <outline>
    <contour>
      <point x="365" y="503" type="line"/>
      <point x="4" y="363" type="line"/>
      <point x="4" y="259" type="line"/>
      <point x="365" y="399" type="line"/>
    </contour>
    <component base="l" xOffset="29"/>
  </outline>
</glyph>
<glyph name="tbar" format="2">
  <advance width="438"/>
  <unicode hex="0167"/>
  <outline>
    <contour>
      <point x="387" y="315" type="line"/>
      <point x="39" y="315" type="line"/>
      <point x="39" y="221" type="line"/>
      <point x="387" y="221" type="line"/>
    </contour>
    <component base="t"/>
  </outline>
</glyph>
<glyph name="uni0237" format="2">
  <advance width="304"/>
  <unicode hex="0237"/>
  <anchor x="152" y="-12" name="bottom"/>
  <anchor x="151" y="557" name="top"/>
  <outline>
    <contour>
      <point x="257" y="58" type="curve" smooth="yes"/>
      <point x="257" y="500" type="line"/>
      <point x="48" y="500" type="line"/>
      <point x="48" y="58" type="line" smooth="yes"/>
      <point x="48" y="1"/>
      <point x="32" y="-45"/>
      <point x="-21" y="-98" type="curve"/>
      <point x="95" y="-190" type="line"/>
      <point x="196" y="-149"/>
      <point x="257" y="-46"/>
    </contour>
  </outline>
</glyph>
<glyph name="uni02B9" format="2">
  <advance width="293"/>
  <unicode hex="02B9"/>
  <anchor x="140" y="526" name="_top"/>
  <outline>
    <contour>
      <point x="243" y="750" type="line"/>
      <point x="99" y="750" type="line"/>
      <point x="50" y="522" type="line"/>
      <point x="170" y="522" type="line"/>
    </contour>
  </outline>
</glyph>
<glyph name="uni02BE" format="2">
  <advance width="179"/>
  <unicode hex="02BE"/>
  <anchor x="85" y="552" name="_top"/>
  <outline>
    <contour>
      <point x="64" y="655" type="curve" smooth="yes"/>
      <point x="64" y="630"/>
      <point x="44" y="610"/>
      <point x="20" y="610" type="curve"/>
      <point x="20" y="530" type="line"/>
      <point x="90" y="530"/>
      <point x="149" y="585"/>
      <point x="149" y="655" type="curve" smooth="yes"/>
      <point x="149" y="724"/>
      <point x="90" y="780"/>
      <point x="20" y="780" type="curve"/>
      <point x="20" y="700" type="line"/>
      <point x="44" y="700"/>
      <point x="64" y="679"/>
    </contour>
  </outline>
</glyph>
<glyph name="uni02C8" format="2">
  <advance width="192"/>
  <unicode hex="02C8"/>
  <anchor x="96" y="546" name="_top"/>
  <outline>
    <contour>
      <point x="157" y="559" type="line"/>
      <point x="157" y="743" type="line"/>
      <point x="35" y="743" type="line"/>
      <point x="35" y="560" type="line"/>
    </contour>
  </outline>
</glyph>
<glyph name="uni02C9" format="2">
  <advance width="400"/>
  <unicode hex="02C9"/>
  <anchor x="199" y="553" name="_top"/>
  <outline>
    <contour>
      <point x="360" y="713" type="line"/>
      <point x="40" y="713" type="line"/>
      <point x="40" y="590" type="line"/>
      <point x="360" y="590" type="line"/>
    </contour>
  </outline>
</glyph>
<glyph name="uni02CA" format="2">
  <advance width="392"/>
  <unicode hex="02CA"/>
  <anchor x="142" y="526" name="_top"/>
  <outline>
    <contour>
      <point x="273" y="747" type="line"/>
      <point x="40" y="597" type="line"/>
      <point x="97" y="511" type="line"/>
      <point x="352" y="614" type="line"/>
    </contour>
  </outline>
</glyph>
<glyph name="uni02CB" format="2">
  <advance width="392"/>
  <unicode hex="02CB"/>
  <anchor x="252" y="526" name="_top"/>
  <outline>
    <contour>
      <point x="119" y="767" type="line"/>
      <point x="40" y="634" type="line"/>
      <point x="295" y="531" type="line"/>
      <point x="352" y="617" type="line"/>
    </contour>
  </outline>
</glyph>
<glyph name="uni02CC" format="2">
  <advance width="172"/>
  <unicode hex="02CC"/>
  <anchor x="86" y="0" name="_bottom"/>
  <outline>
    <contour>
      <point x="147" y="-211" type="line"/>
      <point x="147" y="-27" type="line"/>
      <point x="25" y="-27" type="line"/>
      <point x="25" y="-210" type="line"/>
    </contour>
  </outline>
</glyph>
<glyph name="breve" format="2">
  <advance width="411"/>
  <unicode hex="02D8"/>
  <anchor x="206" y="532" name="_top"/>
  <outline>
    <contour>
      <point x="384" y="706" type="curve"/>
      <point x="287" y="719" type="line"/>
      <point x="287" y="677"/>
      <point x="265" y="660"/>
      <point x="206" y="660" type="curve" smooth="yes"/>
      <point x="146" y="660"/>
      <point x="124" y="677"/>
      <point x="124" y="719" type="curve"/>
      <point x="27" y="706" type="line"/>
      <point x="11" y="617"/>
      <point x="83" y="534"/>
      <point x="206" y="534" type="curve" smooth="yes"/>
      <point x="329" y="534"/>
      <point x="400" y="617"/>
    </contour>
  </outline>
</glyph>
<glyph name="gravecomb" format="2">
  <advance width="0"/>
  <unicode hex="0300"/>
  <anchor x="252" y="526" name="_top"/>
  <outline>
    <contour>
      <point x="119" y="767" type="line"/>
      <point x="40" y="634" type="line"/>
      <point x="295" y="531" type="line"/>
      <point x="352" y="617" type="line"/>
    </contour>
  </outline>
</glyph>
<glyph name="uni0302" format="2">
  <advance width="0"/>
  <unicode hex="0302"/>
  <anchor x="-235" y="550" name="_top"/>
  <outline>
    <contour>
      <point x="-158" y="735" type="line"/>
      <point x="-310" y="735" type="line"/>
      <point x="-450" y="602" type="line"/>
      <point x="-400" y="525" type="line"/>
      <point x="-238" y="618" type="line"/>
      <point x="-230" y="618" type="line"/>
      <point x="-71" y="525" type="line"/>
      <point x="-23" y="594" type="line"/>
    </contour>
  </outline>
</glyph>
<glyph name="uni0304" format="2">
  <advance width="0"/>
  <unicode hex="0304"/>
  <anchor x="-201" y="553" name="_top"/>
  <outline>
    <contour>
      <point x="-40" y="713" type="line"/>
      <point x="-360" y="713" type="line"/>
      <point x="-360" y="590" type="line"/>
      <point x="-40" y="590" type="line"/>
    </contour>
  </outline>
</glyph>
<glyph name="uni0306" format="2">
  <advance width="0"/>
  <unicode hex="0306"/>
  <anchor x="-209" y="532" name="_top"/>
  <outline>
    <contour>
      <point x="-31" y="706" type="curve"/>
      <point x="-128" y="719" type="line"/>
      <point x="-128" y="677"/>
      <point x="-150" y="660"/>
      <point x="-209" y="660" type="curve" smooth="yes"/>
      <point x="-269" y="660"/>
      <point x="-291" y="677"/>
      <point x="-291" y="719" type="curve"/>
      <point x="-388" y="706" type="line"/>
      <point x="-404" y="617"/>
      <point x="-332" y="534"/>
      <point x="-209" y="534" type="curve" smooth="yes"/>
      <point x="-86" y="534"/>
      <point x="-15" y="617"/>
    </contour>
  </outline>
</glyph>
<glyph name="uni0307" format="2">
  <advance width="0"/>
  <unicode hex="0307"/>
  <anchor x="-128" y="546" name="_top"/>
  <outline>
    <contour>
      <point x="-98" y="724" type="curve" smooth="yes"/>
      <point x="-161" y="724" type="line" smooth="yes"/>
      <point x="-201" y="724"/>
      <point x="-220" y="706"/>
      <point x="-220" y="667" type="curve" smooth="yes"/>
      <point x="-220" y="620" type="line" smooth="yes"/>
      <point x="-220" y="582"/>
      <point x="-201" y="563"/>
      <point x="-161" y="563" type="curve" smooth="yes"/>
      <point x="-98" y="563" type="line" smooth="yes"/>
      <point x="-58" y="563"/>
      <point x="-39" y="582"/>
      <point x="-39" y="620" type="curve" smooth="yes"/>
      <point x="-39" y="667" type="line" smooth="yes"/>
      <point x="-39" y="706"/>
      <point x="-58" y="724"/>
    </contour>
  </outline>
</glyph>
<glyph name="uni030B" format="2">
  <advance width="0"/>
  <unicode hex="030B"/>
  <anchor x="-317" y="523" name="_top"/>
  <outline>
    <contour>
      <point x="-397" y="756" type="line"/>
      <point x="-520" y="563" type="line"/>
      <point x="-437" y="496" type="line"/>
      <point x="-268" y="672" type="line"/>
    </contour>
    <contour>
      <point x="-182" y="756" type="line"/>
      <point x="-305" y="562" type="line"/>
      <point x="-223" y="496" type="line"/>
      <point x="-53" y="672" type="line"/>
    </contour>
  </outline>
</glyph>
<glyph name="uni030C" format="2">
  <advance width="0"/>
  <unicode hex="030C"/>
  <anchor x="-245" y="545" name="_top"/>
  <outline>
    <contour>
      <point x="-89" y="754" type="line"/>
      <point x="-241" y="678" type="line"/>
      <point x="-249" y="678" type="line"/>
      <point x="-400" y="754" type="line"/>
      <point x="-450" y="677" type="line"/>
      <point x="-286" y="546" type="line"/>
      <point x="-204" y="546" type="line"/>
      <point x="-41" y="677" type="line"/>
    </contour>
  </outline>
</glyph>
<glyph name="uni030F" format="2">
  <advance width="0"/>
  <unicode hex="030F"/>
  <anchor x="-246" y="523" name="_top"/>
  <outline>
    <contour>
      <point x="-166" y="756" type="line"/>
      <point x="-295" y="672" type="line"/>
      <point x="-126" y="496" type="line"/>
      <point x="-43" y="563" type="line"/>
    </contour>
    <contour>
      <point x="-381" y="756" type="line"/>
      <point x="-510" y="672" type="line"/>
      <point x="-340" y="496" type="line"/>
      <point x="-258" y="562" type="line"/>
    </contour>
  </outline>
</glyph>
<glyph name="uni0311" format="2">
  <advance width="0"/>
  <unicode hex="0311"/>
  <anchor x="-209" y="532" name="_top"/>
  <outline>
    <contour>
      <point x="-388" y="547" type="curve"/>
      <point x="-291" y="534" type="line"/>
      <point x="-291" y="576"/>
      <point x="-269" y="593"/>
      <point x="-210" y="593" type="curve" smooth="yes"/>
      <point x="-150" y="593"/>
      <point x="-128" y="576"/>
      <point x="-128" y="534" type="curve"/>
      <point x="-31" y="547" type="line"/>
      <point x="-15" y="636"/>
      <point x="-87" y="719"/>
      <point x="-210" y="719" type="curve" smooth="yes"/>
      <point x="-333" y="719"/>
      <point x="-404" y="636"/>
    </contour>
  </outline>
</glyph>
<glyph name="uni0326" format="2">
  <advance width="0"/>
  <unicode hex="0326"/>
  <anchor x="118" y="-12" name="bottom"/>
  <outline>
    <contour>
      <point x="68" y="-290" type="curve"/>
      <point x="139" y="-309" type="line"/>
      <point x="177" y="-265"/>
      <point x="200" y="-226"/>
      <point x="200" y="-150" type="curve" smooth="yes"/>
      <point x="200" y="-102" type="line" smooth="yes"/>
      <point x="199" y="-61"/>
      <point x="183" y="-48"/>
      <point x="135" y="-48" type="curve" smooth="yes"/>
      <point x="97" y="-48" type="line" smooth="yes"/>
      <point x="49" y="-48"/>
      <point x="34" y="-61"/>
      <point x="33" y="-102" type="curve" smooth="yes"/>
      <point x="30" y="-139" type="line" smooth="yes"/>
      <point x="31" y="-170"/>
      <point x="48" y="-187"/>
      <point x="86" y="-187" type="curve"/>
      <point x="85" y="-221"/>
      <point x="82" y="-256"/>
    </contour>
  </outline>
</glyph>
<glyph name="uni0331" format="2">
  <advance width="0"/>
  <unicode hex="0331"/>
  <anchor x="-189" y="0" name="_bottom"/>
  <outline>
    <contour>
      <point x="-30" y="-49" type="line"/>
      <point x="-350" y="-49" type="line"/>
      <point x="-350" y="-172" type="line"/>
      <point x="-30" y="-172" type="line"/>
    </contour>
  </outline>
</glyph>
<glyph name="uni0406" format="2">
  <advance width="329"/>
  <unicode hex="0406"/>
  <anchor x="166" y="721" name="top"/>
  <outline>
    <contour>
      <point x="272" y="690" type="line"/>
      <point x="57" y="690" type="line"/>
      <point x="57" y="0" type="line"/>
      <point x="272" y="0" type="line"/>
    </contour>
  </outline>
</glyph>
<glyph name="uni041D" format="2">
  <advance width="722"/>
  <unicode hex="041D"/>
  <outline>
    <contour>
      <point x="274" y="690" type="line"/>
      <point x="57" y="690" type="line"/>
      <point x="57" y="0" type="line"/>
      <point x="274" y="0" type="line"/>
    </contour>
    <contour>
      <point x="459" y="442" type="line"/>
      <point x="266" y="442" type="line"/>
      <point x="266" y="290" type="line"/>
      <point x="459" y="290" type="line"/>
    </contour>
    <contour>
      <point x="665" y="690" type="line"/>
      <point x="448" y="690" type="line"/>
      <point x="448" y="0" type="line"/>
      <point x="665" y="0" type="line"/>
    </contour>
  </outline>
</glyph>
<glyph name="uni0422" format="2">
  <advance width="623"/>
  <unicode hex="0422"/>
  <outline>
    <contour>
      <point x="420" y="690" type="line"/>
      <point x="203" y="690" type="line"/>
      <point x="203" y="0" type="line"/>
      <point x="420" y="0" type="line"/>
    </contour>
    <contour>
      <point x="613" y="690" type="line"/>
      <point x="10" y="690" type="line"/>
      <point x="10" y="528" type="line"/>
      <point x="613" y="528" type="line"/>
    </contour>
  </outline>
</glyph>
<glyph name="uni0428" format="2">
  <advance width="1019"/>
  <unicode hex="0428"/>
  <outline>
    <contour>
      <point x="962" y="690" type="line"/>
      <point x="750" y="690" type="line"/>
      <point x="750" y="0" type="line"/>
      <point x="962" y="0" type="line"/>
    </contour>
    <contour>
      <point x="269" y="690" type="line"/>
      <point x="57" y="690" type="line"/>
      <point x="57" y="0" type="line"/>
      <point x="269" y="0" type="line"/>
    </contour>
    <contour>
      <point x="798" y="142" type="line"/>
      <point x="260" y="142" type="line"/>
      <point x="260" y="0" type="line"/>
      <point x="798" y="0" type="line"/>
    </contour>
    <contour>
      <point x="615" y="690" type="line"/>
      <point x="404" y="690" type="line"/>
      <point x="404" y="0" type="line"/>
      <point x="615" y="0" type="line"/>
    </contour>
  </outline>
</glyph>
<glyph name="uni0429" format="2">
  <advance width="1048"/>
  <unicode hex="0429"/>
  <outline>
    <contour>
      <point x="269" y="690" type="line"/>
      <point x="57" y="690" type="line"/>
      <point x="57" y="0" type="line"/>
      <point x="269" y="0" type="line"/>
    </contour>
    <contour>
      <point x="1034" y="142" type="line"/>
      <point x="260" y="142" type="line"/>
      <point x="260" y="0" type="line"/>
      <point x="1034" y="0" type="line"/>
    </contour>
    <contour>
      <point x="614" y="690" type="line"/>
      <point x="402" y="690" type="line"/>
      <point x="402" y="0" type="line"/>
      <point x="614" y="0" type="line"/>
    </contour>
    <contour>
      <point x="959" y="690" type="line"/>
      <point x="747" y="690" type="line"/>
      <point x="747" y="0" type="line"/>
      <point x="959" y="0" type="line"/>
    </contour>
    <contour>
      <point x="1034" y="7" type="line"/>
      <point x="861" y="7" type="line"/>
      <point x="877" y="-151" type="line"/>
      <point x="1034" y="-151" type="line"/>
    </contour>
  </outline>
</glyph>
<glyph name="uni043D" format="2">
  <advance width="628"/>
  <unicode hex="043D"/>
  <outline>
    <contour>
      <point x="253" y="500" type="line"/>
      <point x="46" y="500" type="line"/>
      <point x="46" y="0" type="line"/>
      <point x="253" y="0" type="line"/>
    </contour>
    <contour>
      <point x="385" y="330" type="line"/>
      <point x="246" y="330" type="line"/>
      <point x="246" y="195" type="line"/>
      <point x="385" y="195" type="line"/>
    </contour>
    <contour>
      <point x="582" y="500" type="line"/>
      <point x="376" y="500" type="line"/>
      <point x="376" y="0" type="line"/>
      <point x="582" y="0" type="line"/>
    </contour>
  </outline>
</glyph>
<glyph name="uni0442" format="2">
  <advance width="537"/>
  <unicode hex="0442"/>
  <outline>
    <contour>
      <point x="373" y="500" type="line"/>
      <point x="164" y="500" type="line"/>
      <point x="164" y="0" type="line"/>
      <point x="373" y="0" type="line"/>
    </contour>
    <contour>
      <point x="526" y="500" type="line"/>
      <point x="11" y="500" type="line"/>
      <point x="11" y="344" type="line"/>
      <point x="526" y="344" type="line"/>
    </contour>
  </outline>
</glyph>
<glyph name="uni0446" format="2">
  <advance width="659"/>
  <unicode hex="0446"/>
  <outline>
    <contour>
      <point x="253" y="500" type="line"/>
      <point x="46" y="500" type="line"/>
      <point x="46" y="0" type="line"/>
      <point x="253" y="0" type="line"/>
    </contour>
    <contour>
      <point x="646" y="136" type="line"/>
      <point x="241" y="136" type="line"/>
      <point x="241" y="0" type="line"/>
      <point x="646" y="0" type="line"/>
    </contour>
    <contour>
      <point x="566" y="500" type="line"/>
      <point x="359" y="500" type="line"/>
      <point x="359" y="0" type="line"/>
      <point x="566" y="0" type="line"/>
    </contour>
    <contour>
      <point x="646" y="5" type="line"/>
      <point x="492" y="5" type="line"/>
      <point x="507" y="-136" type="line"/>
      <point x="646" y="-136" type="line"/>
    </contour>
  </outline>
</glyph>
<glyph name="uni0448" format="2">
  <advance width="870"/>
  <unicode hex="0448"/>
  <outline>
    <contour>
      <point x="248" y="500" type="line"/>
      <point x="46" y="500" type="line"/>
      <point x="46" y="0" type="line"/>
      <point x="248" y="0" type="line"/>
    </contour>
    <contour>
      <point x="667" y="136" type="line"/>
      <point x="240" y="136" type="line"/>
      <point x="240" y="0" type="line"/>
      <point x="667" y="0" type="line"/>
    </contour>
    <contour>
      <point x="527" y="500" type="line"/>
      <point x="343" y="500" type="line"/>
      <point x="343" y="0" type="line"/>
      <point x="527" y="0" type="line"/>
    </contour>
    <contour>
      <point x="824" y="500" type="line"/>
      <point x="622" y="500" type="line"/>
      <point x="622" y="0" type="line"/>
      <point x="824" y="0" type="line"/>
    </contour>
  </outline>
</glyph>
<glyph name="uni048A" format="2">
  <advance width="777"/>
  <unicode hex="048A"/>
  <outline>
    <contour>
      <point x="471" y="142" type="line"/>
      <point x="471" y="0" type="line"/>
      <point x="589" y="0" type="line"/>
      <point x="575" y="-151" type="line"/>
      <point x="732" y="-151" type="line"/>
      <point x="762" y="0" type="line"/>
      <point x="762" y="142" type="line"/>
    </contour>
    <component base="uni0418"/>
    <component base="uni0306.cy" xOffset="170" yOffset="235"/>
  </outline>
</glyph>
<glyph name="uni048B" format="2">
  <advance width="678"/>
  <unicode hex="048B"/>
  <outline>
    <contour>
      <point x="402" y="132" type="line"/>
      <point x="402" y="0" type="line"/>
      <point x="515" y="0" type="line"/>
      <point x="491" y="-136" type="line"/>
      <point x="635" y="-136" type="line"/>
      <point x="665" y="0" type="line"/>
      <point x="665" y="132" type="line"/>
    </contour>
    <component base="uni0439"/>
  </outline>
</glyph>
<glyph name="uni048C" format="2">
  <advance width="657"/>
  <unicode hex="048C"/>
  <outline>
    <contour>
      <point x="-20" y="507" type="line"/>
      <point x="521" y="507" type="line"/>
      <point x="521" y="627" type="line"/>
      <point x="-20" y="627" type="line"/>
    </contour>
    <component base="uni042C" xOffset="45"/>
  </outline>
</glyph>
<glyph name="uni0492" format="2">
  <advance width="589"/>
  <unicode hex="0492"/>
  <outline>
    <contour>
      <point x="-23" y="244" type="line"/>
      <point x="506" y="244" type="line"/>
      <point x="506" y="364" type="line"/>
      <point x="-23" y="364" type="line"/>
    </contour>
    <component base="uni0413" xOffset="35"/>
  </outline>
</glyph>
<glyph name="uni0493" format="2">
  <advance width="502"/>
  <unicode hex="0493"/>
  <outline>
    <contour>
      <point x="0" y="152" type="line"/>
      <point x="389" y="152" type="line"/>
      <point x="389" y="251" type="line"/>
      <point x="0" y="251" type="line"/>
    </contour>
    <component base="uni0433" xOffset="29"/>
  </outline>
</glyph>
<glyph name="uni0497" format="2">
  <advance width="886"/>
  <unicode hex="0497"/>
  <outline>
    <contour>
      <point x="889" y="136" type="line"/>
      <point x="654" y="136" type="line"/>
      <point x="654" y="0" type="line"/>
      <point x="889" y="0" type="line"/>
    </contour>
    <contour>
      <point x="889" y="5" type="line"/>
      <point x="735" y="5" type="line"/>
      <point x="750" y="-136" type="line"/>
      <point x="889" y="-136" type="line"/>
    </contour>
    <component base="uni0436"/>
  </outline>
</glyph>
<glyph name="uni0499" format="2">
  <advance width="535"/>
  <unicode hex="0499"/>
  <outline>
    <contour>
      <point x="352" y="5" type="line"/>
      <point x="186" y="5" type="line"/>
      <point x="199" y="-162" type="line"/>
      <point x="340" y="-162" type="line"/>
    </contour>
    <component base="uni0437"/>
  </outline>
</glyph>
<glyph name="uni049E" format="2">
  <advance width="701"/>
  <unicode hex="049E"/>
  <outline>
    <contour>
      <point x="-20" y="506" type="line"/>
      <point x="398" y="506" type="line"/>
      <point x="398" y="626" type="line"/>
      <point x="-20" y="626" type="line"/>
    </contour>
    <component base="uni041A" xOffset="33"/>
  </outline>
</glyph>
<glyph name="uni04A0" format="2">
  <advance width="795"/>
  <unicode hex="04A0"/>
  <outline>
    <contour>
      <point x="400" y="690" type="line"/>
      <point x="-10" y="690" type="line"/>
      <point x="-10" y="528" type="line"/>
      <point x="400" y="528" type="line"/>
    </contour>
    <component base="uni041A" xOffset="127"/>
  </outline>
</glyph>
<glyph name="uni04A1" format="2">
  <advance width="700"/>
  <unicode hex="04A1"/>
  <outline>
    <contour>
      <point x="676" y="500" type="curve"/>
      <point x="464" y="500" type="line"/>
      <point x="423" y="322"/>
      <point x="428" y="325"/>
      <point x="363" y="325" type="curve"/>
      <point x="367" y="191" type="line"/>
      <point x="427" y="191"/>
      <point x="419" y="213"/>
      <point x="475" y="0" type="curve"/>
      <point x="693" y="0" type="line"/>
      <point x="622" y="254"/>
      <point x="628" y="238"/>
      <point x="507" y="257" type="curve"/>
      <point x="507" y="263" type="line"/>
      <point x="627" y="281"/>
      <point x="609" y="272"/>
    </contour>
    <contour>
      <point x="361" y="391" type="curve" smooth="yes"/>
      <point x="361" y="500" type="line"/>
      <point x="152" y="500" type="line"/>
      <point x="152" y="0" type="line"/>
      <point x="361" y="0" type="line"/>
      <point x="361" y="152" type="line" smooth="yes"/>
      <point x="361" y="183"/>
      <point x="347" y="229"/>
      <point x="331" y="262" type="curve"/>
      <point x="351" y="299"/>
      <point x="361" y="350"/>
    </contour>
    <contour>
      <point x="409" y="325" type="line"/>
      <point x="312" y="325" type="line"/>
      <point x="312" y="191" type="line"/>
      <point x="409" y="191" type="line"/>
    </contour>
    <contour>
      <point x="-10" y="500" type="line"/>
      <point x="-10" y="350" type="line"/>
      <point x="262" y="350" type="line"/>
      <point x="262" y="500" type="line"/>
    </contour>
  </outline>
</glyph>
<glyph name="uni04A2" format="2">
  <advance width="733"/>
  <unicode hex="04A2"/>
  <outline>
    <contour>
      <point x="738" y="142" type="line"/>
      <point x="445" y="142" type="line"/>
      <point x="445" y="0" type="line"/>
      <point x="738" y="0" type="line"/>
    </contour>
    <contour>
      <point x="738" y="7" type="line"/>
      <point x="565" y="7" type="line"/>
      <point x="581" y="-151" type="line"/>
      <point x="738" y="-151" type="line"/>
    </contour>
    <component base="uni041D" xOffset="-4"/>
  </outline>
</glyph>
<glyph name="uni04A6" format="2">
  <advance width="1023"/>
  <unicode hex="04A6"/>
  <outline>
    <contour>
      <point x="684" y="-30" type="curve"/>
      <point x="704" y="-180" type="line"/>
      <point x="858" y="-162"/>
      <point x="1001" y="-82"/>
      <point x="1001" y="166" type="curve" smooth="yes"/>
      <point x="1001" y="368"/>
      <point x="941" y="454"/>
      <point x="804" y="454" type="curve" smooth="yes"/>
      <point x="740" y="454"/>
      <point x="657" y="429"/>
      <point x="608" y="388" type="curve"/>
      <point x="611" y="257" type="line"/>
      <point x="657" y="283"/>
      <point x="702" y="287"/>
      <point x="723" y="287" type="curve" smooth="yes"/>
      <point x="769" y="287"/>
      <point x="783" y="260"/>
      <point x="783" y="162" type="curve" smooth="yes"/>
      <point x="783" y="56"/>
      <point x="774" y="11"/>
    </contour>
    <contour>
      <point x="53" y="0" type="line"/>
      <point x="270" y="0" type="line"/>
      <point x="270" y="690" type="line"/>
      <point x="53" y="690" type="line"/>
    </contour>
    <contour>
      <point x="439" y="0" type="line"/>
      <point x="656" y="0" type="line"/>
      <point x="656" y="690" type="line"/>
      <point x="439" y="690" type="line"/>
    </contour>
    <contour>
      <point x="262" y="548" type="line"/>
      <point x="451" y="548" type="line"/>
      <point x="451" y="690" type="line"/>
      <point x="262" y="690" type="line"/>
    </contour>
  </outline>
</glyph>
<glyph name="uni04AB" format="2">
  <advance width="528"/>
  <unicode hex="04AB"/>
  <outline>
    <contour>
      <point x="367" y="5" type="line"/>
      <point x="201" y="5" type="line"/>
      <point x="214" y="-162" type="line"/>
      <point x="355" y="-162" type="line"/>
    </contour>
    <component base="c"/>
  </outline>
</glyph>
<glyph name="uni04AC" format="2">
  <advance width="623"/>
  <unicode hex="04AC"/>
  <outline>
    <contour>
      <point x="497" y="142" type="line"/>
      <point x="204" y="142" type="line"/>
      <point x="204" y="0" type="line"/>
      <point x="497" y="0" type="line"/>
    </contour>
    <contour>
      <point x="340" y="-151" type="line"/>
      <point x="497" y="-151" type="line"/>
      <point x="497" y="7" type="line"/>
      <point x="324" y="7" type="line"/>
    </contour>
    <component base="uni0422"/>
  </outline>
</glyph>
<glyph name="uni04AD" format="2">
  <advance width="553"/>
  <unicode hex="04AD"/>
  <outline>
    <contour>
      <point x="382" y="500" type="line"/>
      <point x="171" y="500" type="line"/>
      <point x="171" y="0" type="line"/>
      <point x="382" y="0" type="line"/>
    </contour>
    <contour>
      <point x="548" y="500" type="line"/>
      <point x="5" y="500" type="line"/>
      <point x="5" y="359" type="line"/>
      <point x="548" y="359" type="line"/>
    </contour>
    <contour>
      <point x="462" y="136" type="line"/>
      <point x="257" y="136" type="line"/>
      <point x="257" y="0" type="line"/>
      <point x="462" y="0" type="line"/>
    </contour>
    <contour>
      <point x="462" y="5" type="line"/>
      <point x="308" y="5" type="line"/>
      <point x="323" y="-136" type="line"/>
      <point x="462" y="-136" type="line"/>
    </contour>
  </outline>
</glyph>
<glyph name="uni04B0" format="2">
  <advance width="609"/>
  <unicode hex="04B0"/>
  <outline>
    <contour>
      <point x="567" y="302" type="line"/>
      <point x="84" y="302" type="line"/>
      <point x="84" y="183" type="line"/>
      <point x="567" y="183" type="line"/>
    </contour>
    <component base="uni04AE"/>
  </outline>
</glyph>
<glyph name="uni04B1" format="2">
  <advance width="663"/>
  <unicode hex="04B1"/>
  <outline>
    <contour>
      <point x="666" y="500" type="line"/>
      <point x="443" y="500" type="line"/>
      <point x="359" y="289" type="line" smooth="yes"/>
      <point x="347" y="259"/>
      <point x="344" y="222"/>
      <point x="338" y="191" type="curve"/>
      <point x="326" y="191" type="line"/>
      <point x="320" y="222"/>
      <point x="317" y="258"/>
      <point x="305" y="288" type="curve" smooth="yes"/>
      <point x="220" y="500" type="line"/>
      <point x="-3" y="500" type="line"/>
      <point x="230" y="20" type="line"/>
      <point x="433" y="20" type="line"/>
    </contour>
    <contour>
      <point x="438" y="143" type="line"/>
      <point x="226" y="143" type="line"/>
      <point x="226" y="-180" type="line"/>
      <point x="438" y="-180" type="line"/>
    </contour>
    <contour>
      <point x="572" y="111" type="line"/>
      <point x="92" y="111" type="line"/>
      <point x="92" y="11" type="line"/>
      <point x="572" y="11" type="line"/>
    </contour>
  </outline>
</glyph>
<glyph name="uni04B3" format="2">
  <advance width="606"/>
  <unicode hex="04B3"/>
  <outline>
    <contour>
      <point x="609" y="136" type="line"/>
      <point x="424" y="136" type="line"/>
      <point x="424" y="0" type="line"/>
      <point x="609" y="0" type="line"/>
    </contour>
    <contour>
      <point x="609" y="5" type="line"/>
      <point x="455" y="5" type="line"/>
      <point x="470" y="-136" type="line"/>
      <point x="609" y="-136" type="line"/>
    </contour>
    <component base="x"/>
  </outline>
</glyph>
<glyph name="uni04B4" format="2">
  <advance width="853"/>
  <unicode hex="04B4"/>
  <outline>
    <contour>
      <point x="564" y="0" type="line"/>
      <point x="781" y="0" type="line"/>
      <point x="781" y="690" type="line"/>
      <point x="564" y="690" type="line"/>
    </contour>
    <contour>
      <point x="168" y="0" type="line"/>
      <point x="385" y="0" type="line"/>
      <point x="385" y="690" type="line"/>
      <point x="168" y="690" type="line"/>
    </contour>
    <contour>
      <point x="377" y="0" type="line"/>
      <point x="857" y="0" type="line"/>
      <point x="857" y="142" type="line"/>
      <point x="377" y="142" type="line"/>
    </contour>
    <contour>
      <point x="700" y="-151" type="line"/>
      <point x="857" y="-151" type="line"/>
      <point x="857" y="7" type="line"/>
      <point x="684" y="7" type="line"/>
    </contour>
    <contour>
      <point x="10" y="528" type="line"/>
      <point x="512" y="528" type="line"/>
      <point x="512" y="690" type="line"/>
      <point x="10" y="690" type="line"/>
    </contour>
  </outline>
</glyph>
<glyph name="uni04BE" format="2">
  <advance width="762"/>
  <unicode hex="04BE"/>
  <outline>
    <contour>
      <point x="555" y="7" type="line"/>
      <point x="391" y="7" type="line"/>
      <point x="399" y="-151" type="line"/>
      <point x="547" y="-151" type="line"/>
    </contour>
    <component base="uni04BC"/>
  </outline>
</glyph>
<glyph name="uni04C0" format="2">
  <advance width="321"/>
  <unicode hex="04C0"/>
  <outline>
    <contour>
      <point x="268" y="690" type="line"/>
      <point x="53" y="690" type="line"/>
      <point x="53" y="0" type="line"/>
      <point x="268" y="0" type="line"/>
    </contour>
  </outline>
</glyph>
<glyph name="uni04C5" format="2">
  <advance width="708"/>
  <unicode hex="04C5"/>
  <outline>
    <contour>
      <point x="420" y="142" type="line"/>
      <point x="420" y="0" type="line"/>
      <point x="540" y="0" type="line"/>
      <point x="526" y="-151" type="line"/>
      <point x="683" y="-151" type="line"/>
      <point x="713" y="0" type="line"/>
      <point x="713" y="142" type="line"/>
    </contour>
    <component base="uni041B" xOffset="-18"/>
  </outline>
</glyph>
<glyph name="uni04C6" format="2">
  <advance width="654"/>
  <unicode hex="04C6"/>
  <outline>
    <contour>
      <point x="421" y="142" type="line"/>
      <point x="421" y="0" type="line"/>
      <point x="491" y="0" type="line"/>
      <point x="477" y="-141" type="line"/>
      <point x="624" y="-141" type="line"/>
      <point x="654" y="0" type="line"/>
      <point x="654" y="142" type="line"/>
    </contour>
    <component base="uni043B"/>
  </outline>
</glyph>
<glyph name="uni04C9" format="2">
  <advance width="734"/>
  <unicode hex="04C9"/>
  <outline>
    <contour>
      <point x="446" y="142" type="line"/>
      <point x="446" y="0" type="line"/>
      <point x="566" y="0" type="line"/>
      <point x="552" y="-151" type="line"/>
      <point x="709" y="-151" type="line"/>
      <point x="739" y="0" type="line"/>
      <point x="739" y="142" type="line"/>
    </contour>
    <component base="uni041D" xOffset="-4"/>
  </outline>
</glyph>
<glyph name="uni04CA" format="2">
  <advance width="660"/>
  <unicode hex="04CA"/>
  <outline>
    <contour>
      <point x="417" y="142" type="line"/>
      <point x="417" y="0" type="line"/>
      <point x="487" y="0" type="line"/>
      <point x="473" y="-151" type="line"/>
      <point x="630" y="-151" type="line"/>
      <point x="660" y="0" type="line"/>
      <point x="660" y="142" type="line"/>
    </contour>
    <component base="uni043D"/>
  </outline>
</glyph>
<glyph name="uni04CB" format="2">
  <advance width="668"/>
  <unicode hex="04CB"/>
  <outline>
    <contour>
      <point x="197" y="142" type="line"/>
      <point x="197" y="0" type="line"/>
      <point x="615" y="0" type="line"/>
      <point x="615" y="142" type="line"/>
    </contour>
    <contour>
      <point x="197" y="7" type="line"/>
      <point x="197" y="-151" type="line"/>
      <point x="354" y="-151" type="line"/>
      <point x="370" y="7" type="line"/>
    </contour>
    <component base="uni0427" xOffset="-22"/>
  </outline>
</glyph>
<glyph name="uni04CC" format="2">
  <advance width="605"/>
  <unicode hex="04CC"/>
  <outline>
    <contour>
      <point x="270" y="106" type="line"/>
      <point x="270" y="0" type="line"/>
      <point x="502" y="0" type="line"/>
      <point x="502" y="106" type="line"/>
    </contour>
    <contour>
      <point x="270" y="5" type="line"/>
      <point x="270" y="-136" type="line"/>
      <point x="409" y="-136" type="line"/>
      <point x="424" y="5" type="line"/>
    </contour>
    <component base="uni0447"/>
  </outline>
</glyph>
<glyph name="uni04CD" format="2">
  <advance width="987"/>
  <unicode hex="04CD"/>
  <outline>
    <contour>
      <point x="718" y="142" type="line"/>
      <point x="718" y="0" type="line"/>
      <point x="838" y="0" type="line"/>
      <point x="824" y="-151" type="line"/>
      <point x="981" y="-151" type="line"/>
      <point x="1011" y="0" type="line"/>
      <point x="1011" y="142" type="line"/>
    </contour>
    <component base="uni041C" xOffset="-4"/>
  </outline>
</glyph>
<glyph name="uni04CE" format="2">
  <advance width="857"/>
  <unicode hex="04CE"/>
  <outline>
    <contour>
      <point x="619" y="142" type="line"/>
      <point x="619" y="0" type="line"/>
      <point x="689" y="0" type="line"/>
      <point x="675" y="-151" type="line"/>
      <point x="832" y="-151" type="line"/>
      <point x="862" y="0" type="line"/>
      <point x="862" y="142" type="line"/>
    </contour>
    <component base="uni043C"/>
  </outline>
</glyph>
<glyph name="uni04F6" format="2">
  <advance width="523"/>
  <unicode hex="04F6"/>
  <outline>
    <contour>
      <point x="343" y="142" type="line"/>
      <point x="50" y="142" type="line"/>
      <point x="50" y="0" type="line"/>
      <point x="343" y="0" type="line"/>
    </contour>
    <contour>
      <point x="343" y="7" type="line"/>
      <point x="170" y="7" type="line"/>
      <point x="186" y="-151" type="line"/>
      <point x="343" y="-151" type="line"/>
    </contour>
    <component base="uni0413" xOffset="-4"/>
  </outline>
</glyph>
<glyph name="uni04F7" format="2">
  <advance width="473"/>
  <unicode hex="04F7"/>
  <outline>
    <contour>
      <point x="331" y="136" type="line"/>
      <point x="116" y="136" type="line"/>
      <point x="116" y="0" type="line"/>
      <point x="331" y="0" type="line"/>
    </contour>
    <contour>
      <point x="331" y="5" type="line"/>
      <point x="177" y="5" type="line"/>
      <point x="192" y="-136" type="line"/>
      <point x="331" y="-136" type="line"/>
    </contour>
    <component base="uni0433"/>
  </outline>
</glyph>
<glyph name="uni04FF" format="2">
  <advance width="618"/>
  <unicode hex="04FF"/>
  <outline>
    <contour>
      <point x="579" y="310" type="line"/>
      <point x="39" y="310" type="line"/>
      <point x="39" y="210" type="line"/>
      <point x="579" y="210" type="line"/>
    </contour>
    <component base="uni0445" xOffset="6"/>
  </outline>
</glyph>
<glyph name="uni0510" format="2">
  <advance width="586"/>
  <unicode hex="0510"/>
  <outline>
    <contour>
      <point x="303" y="698" type="curve" smooth="yes"/>
      <point x="117" y="698"/>
      <point x="52" y="660"/>
      <point x="52" y="518" type="curve" smooth="yes"/>
      <point x="52" y="419"/>
      <point x="85" y="369"/>
      <point x="172" y="361" type="curve"/>
      <point x="172" y="355" type="line"/>
      <point x="67" y="346"/>
      <point x="30" y="282"/>
      <point x="30" y="172" type="curve" smooth="yes"/>
      <point x="30" y="30"/>
      <point x="104" y="-8"/>
      <point x="271" y="-8" type="curve" smooth="yes"/>
      <point x="401" y="-8"/>
      <point x="480" y="2"/>
      <point x="566" y="30" type="curve"/>
      <point x="550" y="171" type="line"/>
      <point x="450" y="155"/>
      <point x="375" y="148"/>
      <point x="314" y="148" type="curve" smooth="yes"/>
      <point x="264" y="148"/>
      <point x="252" y="162"/>
      <point x="252" y="216" type="curve" smooth="yes"/>
      <point x="252" y="273"/>
      <point x="264" y="286"/>
      <point x="315" y="287" type="curve" smooth="yes"/>
      <point x="467" y="290" type="line"/>
      <point x="467" y="425" type="line"/>
      <point x="317" y="428" type="line" smooth="yes"/>
      <point x="276" y="429"/>
      <point x="266" y="440"/>
      <point x="266" y="487" type="curve" smooth="yes"/>
      <point x="266" y="531"/>
      <point x="276" y="542"/>
      <point x="318" y="542" type="curve" smooth="yes"/>
      <point x="392" y="542"/>
      <point x="452" y="537"/>
      <point x="539" y="527" type="curve"/>
      <point x="555" y="675" type="line"/>
      <point x="482" y="692"/>
      <point x="413" y="698"/>
    </contour>
  </outline>
</glyph>
<glyph name="uni0511" format="2">
  <advance width="535"/>
  <unicode hex="0511"/>
  <outline>
    <contour>
      <point x="308" y="514" type="curve" smooth="yes"/>
      <point x="120" y="514"/>
      <point x="42" y="498"/>
      <point x="42" y="376" type="curve" smooth="yes"/>
      <point x="42" y="297"/>
      <point x="75" y="266"/>
      <point x="152" y="260" type="curve"/>
      <point x="152" y="255" type="line"/>
      <point x="59" y="249"/>
      <point x="22" y="206"/>
      <point x="22" y="125" type="curve" smooth="yes"/>
      <point x="22" y="0"/>
      <point x="109" y="-14"/>
      <point x="269" y="-14" type="curve" smooth="yes"/>
      <point x="352" y="-14"/>
      <point x="430" y="-10"/>
      <point x="516" y="10" type="curve"/>
      <point x="503" y="144" type="line"/>
      <point x="416" y="135"/>
      <point x="340" y="132"/>
      <point x="284" y="132" type="curve" smooth="yes"/>
      <point x="245" y="132"/>
      <point x="236" y="133"/>
      <point x="236" y="164" type="curve" smooth="yes"/>
      <point x="236" y="187"/>
      <point x="243" y="188"/>
      <point x="285" y="190" type="curve" smooth="yes"/>
      <point x="453" y="194" type="line"/>
      <point x="453" y="311" type="line"/>
      <point x="286" y="315" type="line" smooth="yes"/>
      <point x="254" y="317"/>
      <point x="247" y="318"/>
      <point x="247" y="339" type="curve" smooth="yes"/>
      <point x="247" y="364"/>
      <point x="254" y="365"/>
      <point x="294" y="365" type="curve" smooth="yes"/>
      <point x="363" y="365"/>
      <point x="433" y="360"/>
      <point x="493" y="353" type="curve"/>
      <point x="506" y="487" type="line"/>
      <point x="433" y="509"/>
      <point x="353" y="514"/>
    </contour>
  </outline>
</glyph>
<glyph name="uni0524" format="2">
  <advance width="729"/>
  <unicode hex="0524"/>
  <outline>
    <contour>
      <point x="734" y="142" type="line"/>
      <point x="441" y="142" type="line"/>
      <point x="441" y="0" type="line"/>
      <point x="734" y="0" type="line"/>
    </contour>
    <contour>
      <point x="734" y="7" type="line"/>
      <point x="561" y="7" type="line"/>
      <point x="577" y="-151" type="line"/>
      <point x="734" y="-151" type="line"/>
    </contour>
    <component base="uni041F" xOffset="-4"/>
  </outline>
</glyph>
<glyph name="uni0525" format="2">
  <advance width="650"/>
  <unicode hex="0525"/>
  <outline>
    <contour>
      <point x="655" y="136" type="line"/>
      <point x="440" y="136" type="line"/>
      <point x="440" y="0" type="line"/>
      <point x="655" y="0" type="line"/>
    </contour>
    <contour>
      <point x="655" y="5" type="line"/>
      <point x="501" y="5" type="line"/>
      <point x="516" y="-136" type="line"/>
      <point x="655" y="-136" type="line"/>
    </contour>
    <component base="uni043F"/>
  </outline>
</glyph>
<glyph name="uni0526" format="2">
  <advance width="717"/>
  <unicode hex="0526"/>
  <outline>
    <contour>
      <point x="735" y="142" type="line"/>
      <point x="442" y="142" type="line"/>
      <point x="442" y="0" type="line"/>
      <point x="735" y="0" type="line"/>
    </contour>
    <contour>
      <point x="735" y="7" type="line"/>
      <point x="562" y="7" type="line"/>
      <point x="578" y="-151" type="line"/>
      <point x="735" y="-151" type="line"/>
    </contour>
    <component base="uni04BA"/>
  </outline>
</glyph>
<glyph name="uni0527" format="2">
  <advance width="661"/>
  <unicode hex="0527"/>
  <outline>
    <contour>
      <point x="661" y="136" type="line"/>
      <point x="429" y="136" type="line"/>
      <point x="429" y="0" type="line"/>
      <point x="661" y="0" type="line"/>
    </contour>
    <contour>
      <point x="661" y="5" type="line"/>
      <point x="507" y="5" type="line"/>
      <point x="522" y="-136" type="line"/>
      <point x="661" y="-136" type="line"/>
    </contour>
    <component base="uni04BB"/>
  </outline>
</glyph>
<glyph name="uni052E" format="2">
  <advance width="742"/>
  <unicode hex="052E"/>
  <outline>
    <contour>
      <point x="729" y="142" type="line"/>
      <point x="436" y="142" type="line"/>
      <point x="436" y="0" type="line"/>
      <point x="729" y="0" type="line"/>
    </contour>
    <contour>
      <point x="729" y="7" type="line"/>
      <point x="556" y="7" type="line"/>
      <point x="572" y="-151" type="line"/>
      <point x="729" y="-151" type="line"/>
    </contour>
    <component base="uni041B"/>
  </outline>
</glyph>
<glyph name="emdash" format="2">
  <advance width="819"/>
  <unicode hex="2014"/>
  <outline>
    <contour>
      <point x="775" y="318" type="line"/>
      <point x="44" y="318" type="line"/>
      <point x="44" y="196" type="line"/>
      <point x="775" y="196" type="line"/>
    </contour>
  </outline>
</glyph>
<glyph name="guilsinglleft" format="2">
  <advance width="317"/>
  <unicode hex="2039"/>
  <outline>
    <contour>
      <point x="179" y="470" type="line"/>
      <point x="21" y="273" type="line"/>
      <point x="21" y="229" type="line"/>
      <point x="179" y="26" type="line"/>
      <point x="289" y="95" type="line"/>
      <point x="203" y="251" type="line"/>
      <point x="289" y="401" type="line"/>
    </contour>
  </outline>
</glyph>
<glyph name="dong" format="2">
  <advance width="617"/>
  <unicode hex="20AB"/>
  <outline>
    <contour>
      <point x="582" y="-50" type="line"/>
      <point x="61" y="-50" type="line"/>
      <point x="61" y="-147" type="line"/>
      <point x="582" y="-147" type="line"/>
    </contour>
    <component base="dcroat"/>
  </outline>
</glyph>
<glyph name="product" format="2">
  <advance width="709"/>
  <unicode hex="220F"/>
  <outline>
    <contour>
      <point x="614" y="690" type="line"/>
      <point x="404" y="690" type="line"/>
      <point x="404" y="-90" type="line"/>
      <point x="614" y="-90" type="line"/>
    </contour>
    <contour>
      <point x="305" y="690" type="line"/>
      <point x="95" y="690" type="line"/>
      <point x="95" y="-90" type="line"/>
      <point x="305" y="-90" type="line"/>
    </contour>
    <contour>
      <point x="684" y="690" type="line"/>
      <point x="25" y="690" type="line"/>
      <point x="25" y="544" type="line"/>
      <point x="684" y="544" type="line"/>
    </contour>
  </outline>
</glyph>
<glyph name="summation" format="2">
  <advance width="598"/>
  <unicode hex="2211"/>
  <outline>
    <contour>
      <point x="562" y="690" type="line"/>
      <point x="44" y="690" type="line"/>
      <point x="44" y="548" type="line"/>
      <point x="164" y="321" type="line"/>
      <point x="32" y="-21" type="line"/>
      <point x="32" y="-163" type="line"/>
      <point x="572" y="-163" type="line"/>
      <point x="572" y="-21" type="line"/>
      <point x="265" y="-21" type="line"/>
      <point x="398" y="321" type="line"/>
      <point x="279" y="548" type="line"/>
      <point x="562" y="548" type="line"/>
    </contour>
  </outline>
</glyph>
<glyph name="minus" format="2">
  <advance width="571"/>
  <unicode hex="2212"/>
  <outline>
    <contour>
      <point x="526" y="365" type="line"/>
      <point x="45" y="365" type="line"/>
      <point x="45" y="219" type="line"/>
      <point x="526" y="219" type="line"/>
    </contour>
  </outline>
</glyph>
<glyph name="uni2215" format="2">
  <advance width="599"/>
  <unicode hex="2215"/>
  <outline>
    <contour>
      <point x="591" y="709" type="line"/>
      <point x="427" y="709" type="line"/>
      <point x="8" y="-58" type="line"/>
      <point x="172" y="-58" type="line"/>
    </contour>
  </outline>
</glyph>
<glyph name="notequal" format="2">
  <advance width="613"/>
  <unicode hex="2260"/>
  <outline>
    <contour>
      <point x="447" y="590" type="line"/>
      <point x="102" y="19" type="line"/>
      <point x="144" y="-3" type="line"/>
      <point x="489" y="568" type="line"/>
    </contour>
    <component base="equal" xOffset="21"/>
  </outline>
</glyph>
<glyph name="lozenge" format="2">
  <advance width="571"/>
  <unicode hex="25CA"/>
  <outline>
    <contour>
      <point x="549" y="357" type="curve" smooth="yes"/>
      <point x="297" y="688" type="line"/>
      <point x="290" y="697"/>
      <point x="282" y="697"/>
      <point x="275" y="688" type="curve" smooth="yes"/>
      <point x="22" y="357" type="line" smooth="yes"/>
      <point x="17" y="349"/>
      <point x="17" y="343"/>
      <point x="22" y="335" type="curve" smooth="yes"/>
      <point x="275" y="2" type="line" smooth="yes"/>
      <point x="282" y="-7"/>
      <point x="290" y="-7"/>
      <point x="297" y="2" type="curve" smooth="yes"/>
      <point x="549" y="335" type="line" smooth="yes"/>
      <point x="554" y="343"/>
      <point x="554" y="349"/>
    </contour>
    <contour>
      <point x="286" y="486" type="line"/>
      <point x="387" y="346" type="line"/>
      <point x="286" y="204" type="line"/>
      <point x="184" y="346" type="line"/>
    </contour>
  </outline>
</glyph>
<glyph name="u1FA9D" format="2">
  <advance width="260"/>
  <unicode hex="1FA9D"/>
  <anchor x="92" y="526" name="_top"/>
  <outline>
    <contour>
      <point x="68" y="606" type="curve"/>
      <point x="89" y="519" type="line"/>
      <point x="162" y="529"/>
      <point x="228" y="569"/>
      <point x="228" y="658" type="curve" smooth="yes"/>
      <point x="228" y="758"/>
      <point x="145" y="808"/>
      <point x="32" y="765" type="curve"/>
      <point x="53" y="671" type="line"/>
      <point x="81" y="686"/>
      <point x="114" y="683"/>
      <point x="114" y="653" type="curve" smooth="yes"/>
      <point x="114" y="623"/>
      <point x="97" y="617"/>
    </contour>
  </outline>
</glyph>
<glyph name=".notdef" format="2">
  <advance width="556"/>
  <outline>
    <contour>
      <point x="104" y="690" type="line"/>
      <point x="63" y="690" type="line"/>
      <point x="63" y="0" type="line"/>
      <point x="104" y="0" type="line"/>
    </contour>
    <contour>
      <point x="493" y="690" type="line"/>
      <point x="452" y="690" type="line"/>
      <point x="452" y="0" type="line"/>
      <point x="493" y="0" type="line"/>
    </contour>
    <contour>
      <point x="63" y="690" type="line"/>
      <point x="63" y="649" type="line"/>
      <point x="493" y="649" type="line"/>
      <point x="493" y="690" type="line"/>
    </contour>
    <contour>
      <point x="63" y="41" type="line"/>
      <point x="63" y="0" type="line"/>
      <point x="493" y="0" type="line"/>
      <point x="493" y="41" type="line"/>
    </contour>
  </outline>
</glyph>
<glyph name="uni0306.cy" format="2">
  <advance width="0"/>
  <anchor x="206" y="500" name="_top"/>
  <outline>
    <contour>
      <point x="384" y="675" type="curve"/>
      <point x="257" y="675" type="line"/>
      <point x="265" y="613"/>
      <point x="244" y="598"/>
      <point x="206" y="598" type="curve" smooth="yes"/>
      <point x="167" y="598"/>
      <point x="146" y="613"/>
      <point x="154" y="675" type="curve"/>
      <point x="27" y="675" type="line"/>
      <point x="11" y="589"/>
      <point x="83" y="502"/>
      <point x="206" y="502" type="curve" smooth="yes"/>
      <point x="329" y="502"/>
      <point x="400" y="589"/>
    </contour>
  </outline>
</glyph>
<glyph name="uni030C.alt" format="2">
  <advance width="0"/>
  <anchor x="-164" y="645" name="_topright"/>
  <outline>
    <contour>
      <point x="-149" y="716" type="curve" smooth="yes"/>
      <point x="-182" y="716" type="line" smooth="yes"/>
      <point x="-223" y="716"/>
      <point x="-236" y="702"/>
      <point x="-238" y="656" type="curve" smooth="yes"/>
      <point x="-240" y="616" type="line" smooth="yes"/>
      <point x="-242" y="582"/>
      <point x="-224" y="563"/>
      <point x="-192" y="563" type="curve"/>
      <point x="-193" y="526"/>
      <point x="-195" y="487"/>
      <point x="-207" y="450" type="curve"/>
      <point x="-145" y="429" type="line"/>
      <point x="-112" y="477"/>
      <point x="-93" y="520"/>
      <point x="-93" y="603" type="curve" smooth="yes"/>
      <point x="-93" y="656" type="line" smooth="yes"/>
      <point x="-93" y="702"/>
      <point x="-108" y="716"/>
    </contour>
  </outline>
</glyph>
